<svg width="45" height="45" viewBox="0 0 45 45" fill="none" xmlns="http://www.w3.org/2000/svg">
<path d="m 40.0404,21.8266 c 0,-0.6677 -0.0713,-1.3276 -0.2162,-1.9797 C 39.8175,19.7728 39.8169,19.6981 39.8029,19.6251 39.367,17.3258 38.469,15.222 37.1189,13.3125 36.3612,12.242 35.5008,11.2626 34.4849,10.4274 34.418,10.3634 34.3546,10.2955 34.2838,10.237 31.4718,7.91867 28.2486,6.6657 24.6043,6.51462 23.5861,6.4725 22.5701,6.51743 21.5654,6.71175 21.4817,6.71849 21.3969,6.71849 21.3149,6.73366 19.1695,7.13858 17.1538,7.88105 15.3325,9.09976 11.4321,11.709 9.01877,15.3197 8.22688,19.948 c -0.53353,3.1187 -0.12355,6.1441 1.19794,9.0399 2.99678,6.5664 10.19118,10.901 17.98368,9.1038 6.2474,-1.4411 10.2669,-5.4106 12.122,-11.5463 0.4639,-1.5344 0.5891,-3.1187 0.5099,-4.7188 z m -1.6809,4.3818 C 36.6617,31.6741 33.1443,35.4077 27.5562,36.768 21.3289,38.2832 16.1777,36.2496 12.234,31.2377 10.1903,28.6408 9.15749,25.6406 9.21814,22.3225 9.29396,18.1974 10.9041,14.7132 13.8571,11.8624 c 2.0005,-1.93144 4.3795,-3.20295 7.1051,-3.80388 0.0354,-0.00787 0.0679,-0.02696 0.1022,-0.041 0.0157,0.0146 0.032,0.02583 0.0489,0.03426 0.0151,-0.0191 0.0314,-0.03538 0.0488,-0.04774 0.6706,-0.09098 1.3384,-0.2078 2.0157,-0.2443 3.8521,-0.20443 7.2533,0.9525 10.2378,3.37986 0.962,0.7823 1.8174,1.6764 2.5362,2.6738 1.4816,2.0578 2.4976,4.3234 2.8087,6.8715 0.1123,0.9165 0.1269,1.8337 0.1,2.7536 h -0.0017 c 0,0 -0.0051,0.0028 -0.0079,0.005 0.0028,0.004 0.0056,0.0079 0.009,0.0113 -0.1017,0.93 -0.2218,1.8578 -0.5004,2.7536 z" fill="white" />
<path d="M 36.4876,22.3248 C 32.4041,18.2733 28.3183,14.224 24.2387,10.1685 c -0.1573,-0.1561 -0.2348,-0.18306 -0.4089,-0.009 -2.9839,2.9817 -5.9756,5.9555 -8.9662,8.9309 -1.08,1.0744 -2.1617,2.1477 -3.2428,3.2215 -0.1287,0.0814 -0.2342,0.1662 -0.0461,0.2965 0.1657,0.1578 0.3314,0.3151 0.497,0.4729 0.0753,0.082 0.1472,0.1674 0.2258,0.246 3.8314,3.8111 7.6656,7.6206 11.4919,11.4379 0.1887,0.1882 0.2797,0.2258 0.4914,0.0135 2.1914,-2.1982 4.398,-4.3817 6.5979,-6.5721 0.907,-0.903 1.8067,-1.8129 2.7098,-2.7199 0.9874,-0.9688 1.973,-1.9393 2.9637,-2.9041 0.1455,-0.1421 0.0034,-0.1899 -0.0646,-0.2578 z m -11.844,10.1575 v -2.5801 c -0.0011,-0.9261 -0.0011,-1.8528 -0.0022,-2.7789 v -0.0208 c -6e-4,-0.4791 -6e-4,-0.9576 -0.0017,-1.4361 v -0.0202 c -6e-4,-0.5318 -0.0012,-1.0637 -0.0023,-1.5955 V 24.045 c 0,-0.2139 -5e-4,-0.4274 -0.0011,-0.6413 v -0.0231 c 0,-0.1409 0.0062,-0.2257 0.21,-0.2252 1.9955,0.0062 3.9909,0.0073 5.9858,0.0079 h 0.0168 c 0.9913,0 1.9826,0 2.9738,6e-4 0.0348,0 0.0697,0.0061 0.1674,0.0146 -3.1007,3.1304 -6.1907,6.2014 -9.3465,9.3038 z m 0.0023,-19.9241 c 0.1246,0.0376 0.1903,0.1292 0.2656,0.2028 1.0227,1.0019 2.0437,2.0061 3.0659,3.0086 0.0663,0.0651 0.1381,0.1241 0.2072,0.1859 0.0332,0.0325 0.0663,0.0645 0.0994,0.0966 0.1197,0.1505 0.2539,0.2869 0.4083,0.4021 0.0186,0.0494 0.0523,0.0837 0.1022,0.1011 0.0253,0.0567 0.0658,0.0977 0.123,0.1213 0.4583,0.465 0.9121,0.934 1.3749,1.3945 0.9991,0.9929 2.0027,1.9819 3.0041,2.9721 0.0219,0.0561 0.0606,0.096 0.1168,0.1179 0.0185,0.0528 0.0539,0.0888 0.1067,0.1073 0.0219,0.0567 0.0607,0.096 0.1174,0.1179 0.0191,0.0523 0.0545,0.0876 0.1067,0.1067 0.0618,0.0781 0.1236,0.1556 0.1842,0.232 -0.0595,0.0747 -0.1303,0.0427 -0.1898,0.0427 -2.9289,5e-4 -5.8583,-0.0034 -8.7871,0.0028 -0.2314,5e-4 -0.3157,-0.032 -0.3145,-0.2971 0.0045,-1.4838 0.005,-2.9682 0.0039,-4.452 v -0.0157 c 0.0039,-0.2039 0.0084,-0.4055 0.0185,-0.6094 0.009,-0.1904 -0.0056,-0.383 -0.0191,-0.5762 v -0.0152 c -0.0011,-1.0305 -0.0028,-2.0605 -0.0033,-3.0911 0,-0.0449 0.005,-0.0904 0.009,-0.1556 z m -1.3401,0.1039 c 0.0348,0.0646 0.0472,0.1387 0.0438,0.2275 -0.0017,0.0432 -0.0045,0.1016 0.0096,0.1466 v 0.6239 c -0.0421,0.0685 -0.0101,0.1668 -0.0101,0.241 -0.0062,2.5452 -0.0051,5.0905 -0.0051,7.6357 0,0.0416 0.0023,0.0826 0.0073,0.1219 -0.0174,0.0719 -0.0679,0.1146 -0.2134,0.114 -2.9272,-0.009 -5.8543,-0.0062 -8.7821,-0.0062 H 14.143 c 3.0575,-3.0703 6.0711,-6.0812 9.1628,-9.1044 z m 0.0545,19.618 c 0,0.0247 -0.0084,0.0488 -0.0213,0.1235 -3.1137,-3.049 -6.1621,-6.1121 -9.2488,-9.2426 h 1.6265 c 2.4598,0 4.9203,0.0012 7.3808,-0.0016 0.1651,0 0.2695,-0.0068 0.269,0.224 -0.009,2.9654 -0.0056,5.9308 -0.0062,8.8967 z" fill="white" />
<path d="m 19.58,32.0403 c -0.6076,0.0022 -1.2159,0.0061 -1.8235,-0.0073 -1.8523,-0.0422 -3.1822,-1.3861 -3.2052,-3.2355 -0.0073,-0.6077 -0.0023,-1.2154 -0.0045,-1.8236 0,-0.091 0.018,-0.1876 -0.0595,-0.2634 -0.3583,-0.3493 -0.715,-0.6992 -1.1143,-1.0901 0.0494,1.1833 -0.0281,2.3054 0.0472,3.427 0.1567,2.3257 1.9061,4.0465 4.2335,4.1189 1.0558,0.0326 2.1134,0.0096 3.1703,0.0107 0.0416,0 0.0949,0.0157 0.1219,-0.0528 -0.3359,-0.3173 -0.6768,-0.6346 -1.0115,-0.9587 -0.1028,-0.1 -0.2162,-0.1258 -0.3544,-0.1252 z" fill="white" />
<path d="m 28.5154,12.9643 c 0.5897,-0.0068 1.1789,-0.0096 1.768,0.0022 1.6837,0.0326 3.0777,1.2951 3.2608,2.9704 0.073,0.67 0.0134,1.3462 0.0236,2.0191 0.0011,0.0921 -0.0309,0.1937 0.0325,0.2729 0.3325,0.41 0.72,0.7649 1.1182,1.1232 -0.0146,-1.2361 0.1118,-2.461 -0.073,-3.6758 -0.2982,-1.9645 -1.8241,-3.5309 -3.7022,-3.7785 -1.2535,-0.1657 -2.5166,-0.0248 -3.7752,-0.0776 0.3229,0.3421 0.6296,0.6577 0.925,0.9829 0.119,0.1308 0.2533,0.1634 0.4223,0.1612 z" fill="white" />
<path d="m 14.4002,18.3261 c 0.1129,-0.1163 0.1483,-0.2427 0.1455,-0.4022 -0.0096,-0.5329 -0.0101,-1.0659 -0.0062,-1.5989 0.0152,-1.9117 1.4097,-3.3237 3.3231,-3.359 0.5796,-0.0102 1.1592,0.0016 1.7388,0.0011 0.0831,0 0.1988,0.0202 0.2443,-0.0242 0.365,-0.3622 0.7172,-0.7368 1.0654,-1.1007 -1.1025,0 -2.2162,-0.0472 -3.3248,0.0101 -2.1948,0.114 -3.928,1.8056 -4.156,3.9936 -0.1202,1.1564 -0.0213,2.3167 -0.0051,3.5096 0.3247,-0.3437 0.6459,-0.6902 0.975,-1.0294 z" fill="white" />
<path d="m 34.7118,27.5232 c 0.0095,-0.6201 0.0022,-1.2401 0.0022,-1.9303 -0.356,0.3667 -0.6908,0.6571 -0.9716,1.0019 -0.1623,0.0977 -0.201,0.2449 -0.2016,0.428 -0.0011,0.7576 0.0719,1.5208 -0.0309,2.2717 -0.2123,1.5518 -1.4726,2.6705 -3.0547,2.7357 -0.6632,0.0275 -1.3282,0.0056 -1.9926,0.0067 -0.1011,6e-4 -0.2027,-0.0174 -0.2875,0.0708 -0.3398,0.3521 -0.6841,0.7003 -1.0587,1.0828 1.2704,-0.0315 2.5026,0.0483 3.7331,-0.054 0.1668,-0.0134 0.3336,-0.0483 0.497,-0.0853 1.836,-0.4184 3.2878,-2.1359 3.3097,-3.9123 0.0106,-0.0258 0.0219,-0.0505 0.0219,-0.0797 V 29.012 c 0.0758,-0.4942 0.0264,-0.9929 0.0337,-1.4888 z" fill="white" />
</svg>
